<?xml version="1.0" encoding="utf-8"?>
<!-- Generator: Adobe Illustrator 16.0.0, SVG Export Plug-In . SVG Version: 6.00 Build 0)  -->
<!DOCTYPE svg PUBLIC "-//W3C//DTD SVG 1.1//EN" "http://www.w3.org/Graphics/SVG/1.1/DTD/svg11.dtd">
<svg version="1.1" id="Layer_1" xmlns="http://www.w3.org/2000/svg" xmlns:xlink="http://www.w3.org/1999/xlink" x="0px" y="0px"
	 width="300px" height="300px" viewBox="0 0 300 300" enable-background="new 0 0 300 300" xml:space="preserve">
<g>
	<path fill="#FFFFFF" d="M70.057,35.863H29.943c-0.642,6.685-6.624,19.854-6.624,27.211c0,10.642,6.47,19.789,15.754,23.913
		c0.249,1.528,1.848,2.87,4.229,3.758c1.75,5.752,1.517,11.511-0.721,17.266c5.025,3.23,10.05,3.23,15.075,0
		c-2.252-5.788-2.469-11.579-0.687-17.366c2.233-0.888,3.717-2.188,3.957-3.658c9.285-4.124,15.754-13.271,15.754-23.913
		C76.681,55.718,70.699,42.548,70.057,35.863z M58.938,81.27H41.062c-6.833-3.095-11.553-9.567-11.553-17.076
		c0-4.211,2.865-11.052,4.311-16.126h32.36c1.446,5.075,4.311,11.915,4.311,16.126C70.491,71.703,65.772,78.175,58.938,81.27z"/>
	<path fill="#FFFFFF" d="M40.627,54.349h-5.762c0.507,2.321-6.698,14.217,5.445,22.08c1.382,0.895,4.647,1.551,2.628-0.373
		C38.861,72.172,33.771,64.554,40.627,54.349z"/>
</g>
<path fill="#FFFFFF" d="M100,112.045H0V44.123L50,0l50,44.123V112.045z M6.588,105.456h86.823v-58.36L50,8.788L6.588,47.096V105.456
	z"/>
<g>
	<path fill="#FFFFFF" d="M224.926,54.621c-0.025-5.271-1.607-10.086-4.864-14.301c-2.629-3.401-7.538-5.912-11.194-8.095
		c-0.422-0.251-0.829-0.799-0.927-1.273c-0.851-4.129-2.644-14.567-3.232-18.022V0h-30.801v13.791h0.723
		c-0.052,0.353-0.062,0.65,0.031,0.762c-0.839-0.034-4.498-0.062-5.064-0.077c-7.747-0.211-14.99,4.324-17.957,11.483
		c-2.959,7.144-1.855,13.797,2.846,19.908c0.28,0.364,0.354,1.007,0.29,1.49c-0.368,2.836-0.979,5.653-1.17,8.498
		c-0.21,3.106-0.053,6.235-0.053,9.355c-0.004,11.246,0.012,22.494-0.017,33.738c-0.01,3.632,1.001,6.877,3.361,9.657
		c3.916,4.614,9.029,6.451,14.953,6.439c10.468-0.016,20.933,0.039,31.399-0.023c2.901-0.017,5.864-0.016,8.689-0.575
		c7.654-1.518,12.981-7.674,13.019-15.004C225.033,84.5,224.997,69.561,224.926,54.621z M177.388,3.48h23.84v6.83h-23.84V3.48z
		 M217.837,100.656c-0.465,3.962-3.487,5.939-7.1,6.954c-1.166,0.327-2.43,0.435-3.647,0.438
		c-11.899,0.029-23.798,0.017-35.696,0.015c-3.474-0.001-6.641-0.925-8.901-3.673c-0.918-1.114-1.731-2.639-1.838-4.034
		c-0.23-3.091,0.067-9.354,0.067-9.354l-0.159-33.434c0,0,0.53-9.01,3.419-12.975c-3.869-2.069-6.277-5.162-6.866-9.492
		c-0.428-3.144,0.32-6.069,2.189-8.617c3.911-5.334,11.169-6.804,17.18-2.629c0.804-2.518,1.667-4.976,2.353-7.483
		c0.326-1.189,2.087-1.575,2.087-1.575h16.642c0,0,1.293,6.238,1.895,9.291c0.743,3.784,1.451,7.575,2.256,11.346
		c0.115,0.536,0.6,1.112,1.074,1.431c2.546,1.713,6.886,3.108,9.226,5.058c7.576,4.665,5.958,15.607,5.958,15.607
		S218.211,97.475,217.837,100.656z"/>
	<path fill="#FFFFFF" d="M172.514,36.99c1.932-1.93,1.944-4.884,0.03-6.818c-1.885-1.905-4.928-1.91-6.831-0.009
		c-1.838,1.832-1.85,4.914-0.025,6.752C167.609,38.852,170.619,38.885,172.514,36.99z"/>
	<path fill="#FFFFFF" d="M168.085,62.516c-1.642,0.541-3.272,1.145-4.884,1.811c0,4.288,0,8.57,0,12.859
		c0.613,0.254,1.231,0.5,1.852,0.734c0-1.732,0-3.465,0-5.193c1.006,0.104,2.019,0.202,3.032,0.296
		c0.744,0.07,1.159-0.481,1.159-1.502c0-2.599,0-5.198,0-7.799C169.244,62.705,168.829,62.267,168.085,62.516z M167.347,70.901
		c-0.771-0.006-1.535-0.009-2.294-0.016c0-1.817,0-3.637,0-5.457c0.759-0.215,1.525-0.421,2.294-0.614
		C167.347,66.844,167.347,68.871,167.347,70.901z"/>
	<path fill="#FFFFFF" d="M172.812,71.789c0.96,0.023,1.927,0.049,2.896,0.07c0-0.888,0-1.774,0-2.662
		c-0.97,0.029-1.937,0.062-2.896,0.101c0-1.871,0-3.74,0-5.61c1.116-0.207,2.239-0.393,3.369-0.559c0-0.917,0-1.83,0-2.743
		c-1.77,0.354-3.53,0.778-5.271,1.267c0,6.069,0,12.136,0,18.203c1.759,0.497,3.531,0.924,5.318,1.278c0-0.915,0-1.828,0-2.742
		c-1.141-0.168-2.283-0.358-3.416-0.569C172.812,75.812,172.812,73.801,172.812,71.789z"/>
	<path fill="#FFFFFF" d="M182.589,71.766c-0.002,0.595,0.122,1.636,0.122,1.636c-1.043-4.692-2.082-9.253-3.125-13.607
		c-0.566,0.083-1.133,0.175-1.697,0.275c0,7.124,0,14.249,0,21.374c0.627,0.109,1.261,0.211,1.888,0.303c0-4.087,0-8.171,0-12.255
		c0-0.577-0.121-1.58-0.121-1.58c1.039,4.567,2.082,9.332,3.123,14.205c0.572,0.056,1.141,0.106,1.711,0.15
		c0-7.674,0-15.346,0-23.021c-0.634,0.05-1.266,0.104-1.9,0.169C182.589,63.533,182.589,67.65,182.589,71.766z"/>
	<path fill="#FFFFFF" d="M191.622,71.854c0.756-0.032,1.169-0.763,1.167-2.132c0-2.824,0-5.653,0-8.476
		c0.006-1.369-0.411-2.152-1.183-2.177c-1.734-0.044-3.469-0.025-5.197,0.058c0,7.751,0,15.506,0,23.257
		c0.651,0.031,1.302,0.053,1.954,0.064c0-6.797,0-13.592,0-20.39c0.823-0.01,1.649-0.01,2.474-0.004c0,2.472,0,4.945,0,7.414
		c-0.643-0.002-1.283-0.002-1.926,0c0,0.708,0,1.411,0,2.116c0.719,3.626,1.442,7.259,2.162,10.867
		c0.683-0.013,1.362-0.036,2.043-0.07v-0.119c-0.721-3.438-1.441-6.915-2.162-10.403C191.18,71.859,191.4,71.859,191.622,71.854z"/>
	<path fill="#FFFFFF" d="M200.053,59.817c-1.405-0.209-2.822-0.379-4.23-0.501c-0.753-0.069-1.166,0.663-1.165,2.021
		c0,6.278,0,12.561,0,18.839c0.001,1.362,0.412,2.09,1.165,2.022c1.408-0.127,2.825-0.292,4.23-0.504
		c0.746-0.115,1.176-0.894,1.176-2.158c0-5.853,0-11.708,0-17.56C201.229,60.712,200.799,59.934,200.053,59.817z M199.288,78.97
		c-0.893,0.095-1.784,0.174-2.682,0.239c0-5.636,0-11.271,0-16.903c0.897,0.064,1.789,0.145,2.682,0.234
		C199.288,68.019,199.288,73.494,199.288,78.97z"/>
	<path fill="#FFFFFF" d="M208.113,61.524c-1.275-0.352-2.563-0.664-3.858-0.942c-0.741-0.164-1.165,0.441-1.165,1.671
		c0,1.544,0,3.089,0,4.633c-0.003,0.79,0.101,1.205,0.424,1.68c1.291,2.011,2.572,3.881,3.851,5.548c0,1.236,0,2.47,0,3.704
		c-0.779,0.154-1.566,0.299-2.352,0.431c0-1.361,0-2.724,0-4.087c-0.641,0.05-1.28,0.095-1.923,0.139c0,1.654,0,3.308,0,4.96
		c0.001,1.231,0.424,1.832,1.165,1.671c1.295-0.276,2.583-0.592,3.858-0.941c0.739-0.208,1.154-0.916,1.154-1.961
		c0-1.413,0-2.827,0-4.242c0.003-0.673-0.1-1.016-0.415-1.421c-1.273-1.639-2.554-3.487-3.84-5.486c0-1.204,0-2.41,0-3.615
		c0.785,0.134,1.572,0.276,2.352,0.43c0,1.186,0,2.368,0,3.557c0.636,0.062,1.271,0.129,1.903,0.196c0-1.329,0-2.656,0-3.988
		C209.265,62.443,208.853,61.732,208.113,61.524z"/>
	<path fill="#FFFFFF" d="M212.982,71.583c0.938-0.037,1.874-0.075,2.803-0.114c0-0.576,0-1.146,0-1.721
		c-0.929-0.055-1.865-0.11-2.803-0.16c0-1.5,0-2.997,0-4.495c1.092,0.283,2.179,0.593,3.256,0.919c0-0.569,0-1.136,0-1.705
		c-1.691-0.699-3.404-1.33-5.132-1.889c0,5.559,0,11.116,0,16.675c1.747-0.564,3.476-1.202,5.181-1.907c0-0.566,0-1.133,0-1.701
		c-1.095,0.332-2.193,0.647-3.305,0.936C212.982,74.807,212.982,73.197,212.982,71.583z"/>
</g>
<g>
	<path fill-rule="evenodd" clip-rule="evenodd" fill="#FFFFFF" d="M94.909,191.358H32.485v39.459h13.966v34.02h7.449v-34.056
		l41.008,0.018L115,211.3L94.909,191.358z M91.646,224.04H39.182v-25.882h52.464l14.187,13.438L91.646,224.04z"/>
	<rect x="57.522" y="259.25" fill-rule="evenodd" clip-rule="evenodd" fill="#FFFFFF" width="33.252" height="5.587"/>
	<rect x="8.031" y="259.25" fill-rule="evenodd" clip-rule="evenodd" fill="#FFFFFF" width="34.799" height="5.587"/>
	<polygon fill-rule="evenodd" clip-rule="evenodd" fill="#FFFFFF" points="26.957,200.409 26.957,193.609 23.354,193.609 
		9.167,180.173 23.354,167.728 75.818,167.728 75.818,186.254 82.515,186.254 82.515,160.948 56.032,160.948 56.032,150 48.583,150 
		48.583,160.985 20.091,160.97 0,180.469 20.091,200.409 	"/>
</g>
<path fill="#FFFFFF" d="M190.256,163.189c-0.142-0.287-0.332-0.55-0.561-0.773c-0.342-0.336-0.762-0.58-1.214-0.733
	c-0.452-0.154-0.938-0.224-1.449-0.224c-0.052,0-0.103,0-0.153,0.002c-1.014,0.027-1.998,0.137-2.949,0.248
	c-3.059,0.363-5.969,1.318-8.618,2.74c-3.974,2.135-7.36,5.316-9.794,9.15c-2.434,3.832-3.914,8.322-4.049,13.064
	c-0.001,0.047,0,0.061,0.002,0.104l0,0v0.002c0,0.014,0.001,0.074,0.001,0.152c0.001,0.122,0.003,0.29,0.017,0.483
	c0.015,0.194,0.039,0.413,0.092,0.652c0.076,0.339,0.194,0.665,0.363,0.967c0.25,0.452,0.623,0.849,1.086,1.112
	c0.462,0.266,0.997,0.393,1.536,0.392l0.049-0.001h0.001c0.385-0.004,0.764-0.072,1.113-0.209c0.525-0.203,0.969-0.562,1.28-0.984
	c0.313-0.424,0.509-0.903,0.626-1.398c0.064-0.283,0.074-0.525,0.079-0.717c0.003-0.191,0.001-0.336,0.009-0.43
	c0.232-3.691,1.184-6.881,2.846-9.623c1.665-2.739,4.049-5.047,7.229-6.93c1.415-0.836,2.901-1.439,4.456-1.852
	s3.179-0.635,4.857-0.701c0.46-0.02,0.897-0.095,1.305-0.234c0.609-0.207,1.158-0.566,1.551-1.075
	c0.395-0.506,0.605-1.151,0.602-1.8c0-0.051-0.002-0.101-0.004-0.15C190.545,163.996,190.445,163.573,190.256,163.189z
	 M222.873,175.296c-2.156-6.104-5.398-11.187-9.674-15.188c-4.273-4.002-9.566-6.914-15.773-8.738
	c-2.245-0.658-4.502-0.924-6.614-1.346c-0.069-0.014-0.161-0.023-0.231-0.023h-6.204c-0.086,0-0.17,0.009-0.254,0.027
	c-0.446,0.1-0.791,0.199-1.04,0.227l0,0c-5.008,0.606-9.762,2.115-14.146,4.654c-3.537,2.047-6.643,4.52-9.274,7.425
	c-2.633,2.904-4.791,6.239-6.441,9.996c-2.084,4.739-3.221,9.667-3.221,14.743c0,1.844,0.15,3.707,0.457,5.585
	c0.543,3.333,1.58,6.444,2.98,9.369s3.162,5.663,5.16,8.267c4.543,5.916,10.103,10.696,15.872,15.155
	c1.972,1.523,3.965,3.005,5.965,4.508c-0.114,0.218-0.226,0.425-0.336,0.624c-1.524,2.734-3.07,5.465-4.586,8.221
	c-0.198,0.362-0.354,0.724-0.464,1.087c-0.107,0.363-0.168,0.73-0.169,1.099c-0.001,0.438,0.09,0.88,0.285,1.279
	c0.146,0.3,0.349,0.571,0.589,0.797c0.363,0.34,0.805,0.575,1.277,0.723c0.476,0.148,0.987,0.215,1.535,0.215h0.024
	c0.896-0.003,1.792-0.004,2.685-0.004c1.034,0,2.062,0.001,3.085,0.002c0.006,2.225,0.015,4.447,0.015,6.668
	c0,1.066-0.002,2.133-0.008,3.199l0,0v0.055c0,2.43,0.875,4.659,2.334,6.316c0.73,0.828,1.609,1.514,2.599,2.006
	c0.988,0.491,2.089,0.787,3.247,0.836c0.154,0.006,0.307,0.01,0.458,0.01c1.223,0,2.382-0.21,3.438-0.613
	c1.584-0.603,2.93-1.644,3.895-3.007c0.969-1.363,1.556-3.041,1.685-4.901c0.067-0.946,0.405-1.676,0.865-2.158
	c0.231-0.242,0.494-0.426,0.788-0.552c0.293-0.126,0.619-0.196,0.986-0.196h0.036h0.001c0.375,0.005,0.709,0.084,1.009,0.223
	c0.448,0.209,0.829,0.554,1.111,1.029c0.28,0.476,0.457,1.082,0.46,1.794c0.006,1.542,0.021,3.076,0.021,4.604
	c0,1.121-0.009,2.238-0.036,3.352l0,0c-0.002,0.08-0.003,0.16-0.003,0.24c0,0.65,0.066,1.324,0.322,1.992
	c0.129,0.332,0.307,0.66,0.536,0.961c0.229,0.303,0.512,0.578,0.837,0.818c0.205,0.15,0.454,0.232,0.709,0.232h1.193
	c0.188,0,0.367-0.042,0.535-0.127c0.342-0.172,0.655-0.379,0.93-0.627c0.414-0.372,0.729-0.842,0.916-1.348
	c0.19-0.507,0.262-1.038,0.262-1.576c0-0.046,0-0.092-0.002-0.137c-0.021-0.996-0.027-1.996-0.027-3c0-1.254,0.01-2.513,0.01-3.777
	c0-0.758-0.004-1.516-0.016-2.277c-0.033-2.343-1.014-4.472-2.555-6.018c-1.541-1.547-3.66-2.529-5.986-2.576h0.001
	c-0.065-0.002-0.13-0.003-0.192-0.003c-2.363-0.001-4.524,0.892-6.121,2.376c-1.598,1.482-2.637,3.568-2.776,5.912
	c-0.029,0.51-0.089,0.986-0.204,1.37c-0.145,0.485-0.477,0.935-0.921,1.257c-0.443,0.325-0.986,0.51-1.497,0.508h-0.033l0,0
	c-0.568-0.007-1.131-0.212-1.562-0.549c-0.217-0.168-0.399-0.367-0.539-0.587c-0.141-0.22-0.24-0.46-0.291-0.72
	c-0.184-0.926-0.196-1.982-0.205-3.094c-0.012-1.296-0.016-2.594-0.016-3.9c0-1.324,0.004-2.664,0.005-4.015
	c0.999-0.001,1.977-0.003,2.941-0.003c0.849,0,1.689,0.002,2.528,0.006h0.003h0.056c0.523,0,1.006-0.04,1.455-0.133
	c0.338-0.069,0.657-0.169,0.959-0.312c0.226-0.107,0.441-0.24,0.637-0.404c0.295-0.244,0.543-0.564,0.7-0.922
	c0.159-0.357,0.228-0.744,0.228-1.119c0-0.427-0.083-0.844-0.219-1.262c-0.137-0.419-0.33-0.842-0.572-1.281
	c-1.582-2.858-3.166-5.717-4.767-8.605c2.478-1.885,4.935-3.738,7.368-5.629c6.233-4.844,12.032-10.206,16.53-16.909
	c2.14-3.19,3.786-6.474,4.896-9.847c1.111-3.372,1.684-6.832,1.684-10.361C225,183.315,224.3,179.334,222.873,175.296z
	 M183.26,237.758c0.342-0.629,0.675-1.24,1.01-1.847c0.881-1.591,1.777-3.181,2.666-4.782c0.186-0.334,0.339-0.664,0.45-1.006
	c0.041-0.127,0.073-0.256,0.103-0.385c0.031,0.141,0.067,0.281,0.113,0.418c0.121,0.361,0.287,0.715,0.487,1.081
	c1.179,2.152,2.37,4.295,3.606,6.521H183.26z M217.172,196.318c-0.972,2.688-2.363,5.268-4.037,7.76
	c-4.086,6.088-9.49,10.979-15.33,15.531c-2.834,2.21-5.74,4.351-8.633,6.537c-0.493,0.377-0.912,0.755-1.24,1.229
	c-0.162,0.236-0.298,0.498-0.39,0.78c-0.022,0.071-0.044,0.144-0.062,0.216c-0.013-0.054-0.026-0.107-0.043-0.161
	c-0.127-0.413-0.346-0.782-0.61-1.103c-0.266-0.324-0.578-0.607-0.933-0.881c-4.166-3.217-8.387-6.315-12.398-9.618
	c-5.227-4.305-9.805-9.142-13.191-14.987c-2.77-4.787-4.11-9.615-4.111-14.495c0-3.942,0.878-7.931,2.641-11.966
	c2.222-5.078,5.271-9.154,9.109-12.221c3.842-3.064,8.485-5.132,13.951-6.133c2.093-0.382,4.133-0.57,6.119-0.57
	c3.784,0,7.375,0.685,10.781,2.046c3.404,1.361,6.627,3.401,9.657,6.134c3.446,3.109,5.974,6.611,7.661,10.484
	s2.537,8.125,2.583,12.74c0.001,0.077,0.001,0.154,0.001,0.23C218.697,190.83,218.143,193.628,217.172,196.318z"/>
</svg>
